<?xml version="1.0" standalone="no"?>
<!DOCTYPE svg PUBLIC "-//W3C//DTD SVG 20010904//EN"
 "http://www.w3.org/TR/2001/REC-SVG-20010904/DTD/svg10.dtd">
<svg version="1.0" xmlns="http://www.w3.org/2000/svg"
 width="1008.000000pt" height="1008.000000pt" viewBox="0 0 1008.000000 1008.000000"
 preserveAspectRatio="xMidYMid meet">
<metadata>
Created by potrace 1.11, written by Peter Selinger 2001-2013
</metadata>
<g transform="translate(0.000000,1008.000000) scale(0.100000,-0.100000)"
fill="#000000" stroke="none">
<path d="M4178 8853 l-957 -956 0 748 c0 411 -3 750 -6 754 -11 11 -404 7
-408 -4 -2 -5 -2 -437 -2 -960 l1 -950 -1403 -1404 -1403 -1403 143 -144 c78
-79 146 -144 150 -144 5 0 1090 1081 2411 2403 1322 1321 2411 2408 2420 2416
15 13 26 5 102 -75 136 -142 424 -442 489 -509 33 -34 137 -142 230 -240 94
-98 204 -212 245 -255 41 -43 147 -153 235 -245 88 -92 203 -212 255 -266 52
-54 154 -160 227 -236 72 -76 173 -181 225 -235 51 -53 165 -171 253 -263 88
-92 187 -196 220 -230 33 -34 134 -140 225 -235 91 -94 208 -216 260 -270 52
-54 167 -174 255 -266 88 -92 202 -210 253 -262 50 -53 92 -96 92 -97 0 -1 39
-43 88 -92 114 -119 436 -454 545 -568 47 -49 123 -129 169 -176 46 -48 130
-136 189 -196 l105 -111 148 148 148 148 -99 101 c-55 55 -98 101 -97 101 1 0
-30 33 -69 73 -145 149 -347 358 -347 360 0 2 -49 53 -257 268 -24 24 -48 49
-53 54 -6 6 -49 51 -96 100 -95 100 -376 394 -469 490 -33 34 -139 144 -235
245 -96 100 -206 215 -245 255 -38 40 -137 143 -220 229 -82 87 -186 195 -230
240 -44 46 -159 166 -255 266 -96 101 -223 233 -282 294 -59 61 -142 148 -185
192 -43 45 -157 163 -253 264 -96 100 -206 215 -245 255 -67 70 -283 295 -472
492 -463 482 -519 541 -570 604 -24 28 -43 49 -43 46 0 -2 -22 18 -50 47 -113
116 -156 156 -165 156 -6 0 -441 -430 -967 -957z"/>
<path d="M1360 4832 c-7 -3 -10 -775 -10 -2288 l0 -2284 1350 0 1350 0 1 63
c0 34 0 689 1 1454 l0 1393 1039 0 1039 0 0 -1455 0 -1455 1353 0 1352 0 -1
2278 c0 1253 -3 2283 -6 2288 -6 9 -389 11 -404 1 -5 -3 -9 -893 -8 -2076 0
-1482 -2 -2071 -10 -2072 -49 -6 -1834 -4 -1846 2 -13 6 -15 177 -14 1453 0
1017 -3 1446 -10 1447 -6 1 -660 2 -1453 3 -1275 1 -1442 -1 -1445 -14 -2 -8
-3 -662 -3 -1453 1 -790 -2 -1438 -5 -1438 -3 -1 -422 -2 -932 -3 -611 -1
-929 2 -931 9 -1 6 -2 940 -2 2078 1 1137 -1 2067 -4 2068 -19 3 -393 3 -401
1z"/>
</g>
</svg>
